# xmcd
#
# Track frame offsets:
#	150
#	16677
#	26952
#	39770
#	52409
#	66180
#	86438
#	113022
#	128426
#	168799
#
# Disc length: 2426 seconds
#
# Revision: 1
# Processed by: cddbd v1.5.1PL2 Copyright (c) Steve Scherf et al.
# Submitted via: audiograbber 1.83.01
#
DISCID=7309780a
DTITLE=Die Bluesvergiftung - Demo CD
DYEAR=1900
DGENRE=Austropop
TTITLE0=Miad und grantig
TTITLE1=Mia gehts guat
TTITLE2=Bachman's Bar
TTITLE3=Kräutagretl
TTITLE4=Heuweg Lena
TTITLE5=Für wen
TTITLE6=Fia a bissl Kokain
TTITLE7=Steh auf Hasi
TTITLE8=A blaue Frau ( special guest 'Fred Jakesch' guitar )
TTITLE9=Dr. Blues
EXTD=
EXTT0=
EXTT1=
EXTT2=
EXTT3=
EXTT4=
EXTT5=
EXTT6=
EXTT7=
EXTT8=
EXTT9=
PLAYORDER=
